HIERARCHY
ROOT simHips
{
  OFFSET 0.347795 91.2824 -0.708489
  CHANNELS 6 Xposition Yposition Zposition Zrotation Xrotation Yrotation
  JOINT simSpine
  {
    OFFSET -0.000355721 21.3001 -0.016921
    CHANNELS 3 Zrotation Xrotation Yrotation
    JOINT simLeftArm
    {
      OFFSET 13.5181 21.3012 0
      CHANNELS 3 Zrotation Xrotation Yrotation
      JOINT simLeftForeArm
      {
        OFFSET 24.5783 0 0
        CHANNELS 3 Zrotation Xrotation Yrotation
        JOINT simLeftHand
        {
          OFFSET 24.5783 0 0
          CHANNELS 3 Zrotation Xrotation Yrotation
          End Site
          {
            OFFSET 7.32568 1.52588e-05 0.0169305
          }
        }
      }
    }
    JOINT simHead
    {
      OFFSET 0 27.4458 -0.00489235
      CHANNELS 3 Zrotation Xrotation Yrotation
      End Site
      {
        OFFSET 0 0 0
      }
    }
    JOINT simRightArm
    {
      OFFSET -13.5174 21.3012 0
      CHANNELS 3 Zrotation Xrotation Yrotation
      JOINT simRightForeArm
      {
        OFFSET -24.5783 0 0
        CHANNELS 3 Zrotation Xrotation Yrotation
        JOINT simRightHand
        {
          OFFSET -24.5783 0 0
          CHANNELS 3 Zrotation Xrotation Yrotation
          End Site
          {
            OFFSET -7.32568 1.52588e-05 0.0169305
          }
        }
      }
    }
  }
  JOINT simRightUpLeg
  {
    OFFSET -8.44614 -9.41038 0.835684
    CHANNELS 3 Zrotation Xrotation Yrotation
    JOINT simRightLeg
    {
      OFFSET 0 -40.9639 0
      CHANNELS 3 Zrotation Xrotation Yrotation
      JOINT simRightFoot
      {
        OFFSET 0 -40.9639 0
        CHANNELS 3 Zrotation Xrotation Yrotation
        End Site
        {
          OFFSET 0.50614 -9.67405 14.6709
        }
      }
    }
  }
  JOINT simLeftUpLeg
  {
    OFFSET 8.44614 -9.41038 0.835684
    CHANNELS 3 Zrotation Xrotation Yrotation
    JOINT simLeftLeg
    {
      OFFSET 0 -40.9639 0
      CHANNELS 3 Zrotation Xrotation Yrotation
      JOINT simLeftFoot
      {
        OFFSET 0 -40.9639 0
        CHANNELS 3 Zrotation Xrotation Yrotation
        End Site
        {
          OFFSET -0.50614 -9.67405 14.6709
        }
      }
    }
  }
}
MOTION
Frames:	22
Frame Time:	0.0333333
0.347795 91.2824 -0.708489 -4.86863 3.30254 1.84528 2.37241 4.95167 1.03013 -68.6213 -3.65305 47.4888 1.50589 11.1412 -104.204 2.71434 10.8271 -20.7765 -1.53454 -1.10232 -5.95211 70.0341 12.9589 -24.8378 3.19708 4.68702 88.9203 2.42363 -0.294685 5.81149 5.19918 -21.7026 -4.17208 -2.83927 54.3123 2.49026 0.14549 -27.4538 -0.031127 -1.14301 -40.4103 4.4819 166.088 74.2802 -152.508 4.54056 -18.3459 0.972573 
-0.2653 93.2226 13.1066 -4.27777 2.88669 1.54321 2.47862 5.1965 0.905905 -67.2041 -0.189081 46.0219 1.12805 7.53644 -101.218 3.96052 8.02064 -21.1442 -1.91607 0.167717 -5.48282 63.1678 13.9329 -23.9844 3.3703 2.93671 84.6594 2.39939 -1.87039 5.76931 4.43043 -2.6 -2.14536 -0.564428 36.043 -3.04253 -2.37324 -28.8941 0.998584 -1.62463 -43.7586 2.5469 157.729 81.2157 -142.382 4.28067 -17.5687 -0.364648 
0.146915 94.3056 26.4665 -3.11911 3.02602 0.267 2.20806 5.2458 0.856341 -58.8274 6.33129 39.5115 0.131832 2.70151 -94.1364 7.50223 2.41046 -22.6397 -2.20277 1.88473 -4.64952 51.3992 14.5437 -17.9044 3.55473 -0.63371 79.4613 0.488337 -3.907 7.94569 0.732551 4.94163 -1.27779 0.553084 31.2936 -6.40898 -2.49039 -17.837 0.385416 -2.30682 -50.1747 2.12311 120.857 87.0713 -101.824 3.42201 -18.5908 -1.99268 
1.01732 94.0467 39.3985 -1.50458 3.58156 -1.52877 1.66722 4.91061 0.854217 -43.1709 9.61346 25.3424 -3.55522 -3.62399 -87.337 14.6208 -5.13632 -23.8495 -2.58773 3.19086 -3.27751 36.4828 10.8303 -6.79572 5.14707 -6.26055 76.0006 -5.37232 -6.87333 12.5992 -4.85065 -8.93638 0.103643 5.06088 51.8796 -12.1119 5.92901 -23.637 0.761476 -3.3933 -57.6557 3.10705 29.3058 84.1337 -9.92479 2.37218 -20.3963 -2.6986 
1.75594 92.2993 52.7596 0.475928 4.68108 -2.92157 0.887153 4.30273 0.721873 -25.2473 3.19261 7.9479 -9.19641 -10.3047 -85.7834 24.5121 -13.12 -22.7029 -3.69312 5.25438 -1.72075 21.5623 0.196422 4.60543 8.61661 -12.8304 77.2869 -15.5094 -12.0527 17.4078 -9.39742 -25.9751 -0.274714 9.95844 68.1002 -17.768 19.7929 -33.885 3.59647 -7.80796 -62.9387 1.69648 23.0583 75.2237 -7.91895 1.41674 -15.5611 -2.44271 
2.25971 88.7481 66.8884 2.25393 4.7648 -3.53324 -0.0103173 3.49027 0.420988 -7.22352 -11.0649 -5.65469 -15.8143 -13.3875 -89.8912 33.9828 -19.7306 -19.4458 -4.77013 9.08478 -1.0021 8.06568 -15.5506 13.3925 13.9688 -16.9769 84.6993 -27.4826 -17.8133 19.6219 -11.7764 -34.748 -2.80937 5.8956 69.5326 -14.7905 20.9629 -30.7463 3.5579 -10.6679 -61.8741 0.60968 14.6935 63.3386 -4.03301 3.80011 -2.66023 -2.51192 
2.55789 83.5299 81.4196 2.70694 2.26979 -3.83074 -0.438765 2.83344 0.257794 13.6291 -25.4823 -12.1217 -17.5295 -13.1519 -93.3246 39.6808 -21.5282 -18.4186 -4.43015 12.5685 -1.11086 -6.07797 -31.2478 18.9325 15.0941 -17.9051 94.2788 -38.3285 -19.0712 21.711 -11.3669 -42.9648 -4.44098 8.14621 74.5431 -16.1204 10.2674 -32.4646 1.96368 -10.0255 -57.9598 0.824881 11.1568 59.902 -2.7039 5.21928 -0.48965 -2.00491 
2.58805 79.2346 94.8029 1.79123 -0.534058 -3.97798 -0.179272 2.34411 0.330305 33.2637 -36.9138 -12.0804 -11.4849 -16.1368 -90.8413 40.5603 -17.5668 -24.5593 -2.83177 12.0461 -1.39045 -18.8877 -44.3203 21.431 8.26395 -20.7747 96.5549 -45.5475 -17.2462 27.5939 -8.82341 -53.1444 -4.96649 9.46893 80.7244 -17.1198 5.7575 -26.4792 0.996802 -9.52975 -57.8107 -0.64114 18.9124 71.6767 -10.5663 0.797414 -14.3033 -0.00122378 
2.15861 79.4518 104.651 0.430642 -2.31146 -3.92731 -0.0133524 2.46958 0.341563 40.123 -43.7951 -13.9949 -8.03166 -25.0162 -85.3635 36.7722 -12.2036 -31.2255 -2.50198 11.9646 -2.14658 -20.5085 -49.7086 27.8838 6.41595 -25.2845 94.9442 -47.4674 -16.2041 29.7823 -4.96282 -54.4566 -5.0734 10.6286 77.2025 -23.4204 -0.905309 -20.9527 -0.0500891 -8.11885 -53.0641 1.38122 18.8635 79.088 -4.54619 11.6886 -26.3027 2.81379 
1.09312 91.0135 116.683 -0.593367 2.48006 -2.33422 -0.427844 2.87893 0.0692756 36.0728 -42.3152 -23.531 -6.6836 -29.2318 -59.4089 25.963 -9.33064 -26.9933 -4.58756 13.1217 -3.49182 -12.8501 -44.1886 40.0872 10.6976 -26.7439 77.277 -42.7703 -11.066 23.9336 -1.97091 -40.3093 -4.9291 1.76166 56.166 -14.4479 -1.79939 -12.326 -0.908379 -4.0316 -39.8108 7.61541 13.9212 59.8725 -2.7927 15.1455 -14.731 1.65667 
0.499194 114.816 135.318 -1.76075 20.3421 2.10049 -0.43283 2.76994 -0.314747 31.3145 -35.5792 -32.3924 -7.58096 -16.1237 -27.9923 11.4001 -11.2494 -20.7437 -4.57275 12.9526 -4.92255 -9.21122 -35.8933 45.3296 2.33805 -16.817 46.5907 -33.9342 -1.94455 18.346 -3.42359 -29.9312 -6.54065 1.61098 25.0653 -10.1049 11.3927 11.968 -1.82177 1.43796 -30.3917 11.7991 3.26714 20.3682 -6.92627 -1.34182 24.4514 -0.61338 
0.864511 132.573 148.428 -3.46412 34.0145 6.52079 -0.0840574 3.86986 -0.52611 18.6081 -26.1004 -39.6148 -13.3914 0.219537 -20.6231 7.59706 -9.45501 -21.9799 -1.78302 24.2607 -5.98252 -8.12 -26.3506 45.0294 4.30103 -2.71536 40.6934 -29.5751 1.80088 16.7888 -6.65942 -35.2937 -8.0585 2.55383 30.02 -11.6308 8.59825 17.4326 -1.4514 4.64017 -34.6737 11.9781 0.557146 18.9432 -7.79628 -8.94593 27.5969 0.859773 
1.20735 142.406 156.77 -4.4094 40.7907 8.05798 -0.0314694 5.27794 -0.791127 4.94207 -14.9645 -39.8351 -17.3671 10.646 -28.336 10.6046 -6.63467 -25.7867 1.14487 43.2498 -7.73016 -3.79187 -16.3798 44.1299 10.5294 7.0174 48.1971 -26.98 -1.88814 16.2907 -8.31985 -44.9676 -9.612 5.31625 53.1903 -14.1372 1.55491 12.6187 -0.230872 8.02877 -45.7015 12.5434 1.57246 45.3439 -10.7052 -6.0002 20.2992 0.606394 
1.88623 152.432 167.648 -5.51761 51.748 8.00486 -0.371752 6.47681 -1.15189 -2.27012 -5.23877 -35.944 -20.6097 16.2733 -34.091 9.98696 -8.34215 -26.3683 1.79649 56.7815 -8.0418 5.90118 -7.87116 45.503 13.4071 13.1314 49.9779 -20.777 -3.18955 16.3512 -13.8483 -57.3677 -15.9525 12.5332 72.5947 -21.8961 -1.07468 9.2994 0.166446 15.1952 -57.6969 18.4515 -0.113514 68.7638 -8.78471 -5.16631 17.577 0.101744 
2.80978 161.504 179.898 -5.80763 65.8768 7.12209 -0.955954 8.08865 -1.53503 -6.14643 4.30093 -31.798 -24.6595 20.6373 -39.8842 8.76499 -13.6595 -24.51 0.608472 62.8302 -7.45847 12.9396 -2.0997 46.1884 17.7966 15.4839 48.0467 -12.1361 -4.1029 16.0986 -33.8679 -69.9756 -36.7497 100.263 86.0515 -108.534 -2.36736 6.35724 0.213136 29.4222 -68.0854 34.1326 -47.4582 87.5704 40.3509 -3.10482 15.066 -0.213117 
3.95039 168.678 193.592 -11.8686 81.8121 12.2981 -1.09325 9.80676 -1.65018 -10.0273 15.1982 -27.3243 -26.3944 23.2075 -49.1759 8.65479 -20.6525 -23.9873 1.9147 67.3533 -7.62263 16.0077 3.84214 42.146 22.5102 17.4049 54.2126 -1.96275 -10.6991 16.1319 -79.6589 -74.2242 -83.8787 169.772 74.5363 -174.793 -3.28011 5.86599 0.273008 56.283 -73.8741 62.8242 -174.793 75.6202 169.388 3.05255 15.8095 -1.22705 
5.11654 172.935 209.177 -171.937 78.8536 170.693 -0.878149 10.7456 -1.40394 -14.8024 24.8083 -19.6542 -26.6833 21.6537 -58.7716 4.16338 -28.5945 -27.285 3.52751 72.6431 -6.31987 20.7893 13.9693 33.9942 20.4443 19.7482 68.2647 12.0656 -16.1091 17.946 -112.077 -69.3265 -116.518 176.41 64.2913 179.621 -4.54485 5.24028 0.306327 86.1828 -73.5783 91.5542 -179.229 64.0296 176.047 8.18741 16.0259 -1.9461 
5.7214 173.268 224.959 -178.882 57.2188 175.191 -0.92333 10.7721 -1.09705 -19.4809 29.5007 -8.48997 -27.9046 18.3029 -68.2583 -2.87929 -34.9699 -30.8584 0.669249 78.3552 -2.01832 27.1695 22.8212 22.555 15.1693 17.9227 80.5902 24.9674 -15.4292 18.7876 -126.098 -67.1399 -127.387 178.17 57.6729 176.74 -3.14343 2.04986 0.0879033 99.9877 -70.8414 101.298 -179.946 56.8213 176.818 8.67408 11.3758 -1.56524 
5.62767 171.123 240.558 178.614 33.9552 175.571 -1.06077 10.3675 -1.00369 -21.1846 30.7419 0.373079 -27.512 16.6577 -77.3536 -2.85255 -36.3963 -28.1131 -4.7594 84.9933 3.72986 33.8233 24.1144 11.5976 12.0643 14.6571 86.9363 27.6158 -11.6893 18.8646 -133.813 -69.8583 -131.917 179.553 55.4977 173.811 1.6242 -0.729565 -0.162305 104.539 -68.4346 102.854 -179.956 55.3774 174.287 6.88398 7.99333 -1.05077 
5.2298 166.586 256.287 176.997 10.6186 175.593 -1.06704 9.94179 -1.11943 -20.7487 30.1078 2.06042 -25.3908 15.676 -82.82 1.20298 -33.2526 -25.1026 10.5353 89.5697 -11.1685 37.528 22.4384 7.47011 9.80929 13.7819 88.5371 23.7635 -6.99698 20.4688 -139.23 -74.4043 -136.099 -179.025 56.2197 171.188 7.04637 -1.21065 -0.296214 107.722 -66.9124 105.891 179.915 57.3113 171.869 4.79212 9.27229 -0.810564 
4.46042 158.709 271.025 175.533 -11.6688 175.155 -1.00049 9.90855 -1.21199 -19.8532 29.2556 -0.453613 -23.9655 14.8569 -84.6448 -0.329528 -30.9376 -27.3466 59.5911 88.5975 -59.8857 38.9241 22.4701 7.85791 8.04027 14.3782 86.9899 22.993 -2.99272 20.5102 -149.33 -80.3067 -145.474 -178.074 56.8946 170.119 12.0667 -1.35012 -0.402544 108.568 -65.5766 107.66 179.032 58.0657 171.976 3.9922 10.6085 -0.741 
3.66903 148.358 284.312 173.769 -33.7531 173.272 -0.800364 10.0948 -1.15815 -19.5984 29.4635 -1.8068 -23.5041 14.379 -84.0407 -4.68139 -30.7549 -29.3714 20.5111 85.8982 -20.5272 40.308 23.3044 7.75872 7.98383 14.1441 83.3472 25.0876 -2.2284 18.4119 -177.14 -85.3294 -173.443 -177.856 58.1415 170.621 14.2884 -2.7682 -0.0971848 109.003 -62.6371 109.532 177.6 57.0594 172.262 3.91729 10.4794 -0.72294 
